# xmcd CD database file
#
# Track frame offsets:
#	150
#	16760
#	38014
#	51241
#	73007
#	83759
#	102155
#	117076
#	136825
#	149802
#	162121
#
# Disc length: 2326 seconds
#
# Revision: 0
# Processed by: cddbd v1.4b42PL1 Copyright (c) Steve Scherf et al.
# Submitted via: CDex 1.40Beta8
#
DISCID=8d09140b
DTITLE=Entity - Here To Stay
DYEAR=2000
DGENRE=Country
TTITLE0=Here To Stay
TTITLE1=You And I
TTITLE2=I'm Your Man
TTITLE3=I Surrender
TTITLE4=It Ain't That Easy
TTITLE5=Until You
TTITLE6=Lovin's What I Do Best
TTITLE7=Swallowed My Pride
TTITLE8=As A Matter Of Fact
TTITLE9=My Heart Is True
TTITLE10=Ugly Woman
EXTD=YEAR: 2000 ID3G: 2
EXTT0=
EXTT1=
EXTT2=
EXTT3=
EXTT4=
EXTT5=
EXTT6=
EXTT7=
EXTT8=
EXTT9=
EXTT10=
PLAYORDER=
